<svg width="180" height="48" viewBox="0 0 180 48" fill="none" xmlns="http://www.w3.org/2000/svg"><rect width="180" height="48" rx="12" fill="#0F172A"/><path d="M22 12L10 36H18.5L22.5 27L26.5 36H35L23 12H22Z" fill="white"/><path d="M45 14H63V20.5H52.5V23.5H62.5V30H52.5V33H63V39.5H45V14Z" fill="white"/><path d="M68 14H77L83.5 24.5L90 14H99V39.5H90.5V26.5L83.5 37H83.4L76.5 26.5V39.5H68V14Z" fill="white"/><path d="M122.5 14H131.5L138 24.5L144.5 14H153.5V39.5H145V26.5L138 37H137.9L131 26.5V39.5H122.5V14Z" fill="white"/><circle cx="112" cy="27" r="11" fill="#FF9B21"/></svg>
